<svg width="36" height="32" viewBox="0 0 36 32" fill="none" xmlns="http://www.w3.org/2000/svg">
<path d="M15.1667 15.6C19.2183 15.6 22.5 12.3183 22.5 8.26668C22.5 4.21502 19.2183 0.93335 15.1667 0.93335C11.115 0.93335 7.83333 4.21502 7.83333 8.26668C7.83333 12.3183 11.115 15.6 15.1667 15.6ZM15.1667 4.60002C17.1833 4.60002 18.8333 6.25002 18.8333 8.26668C18.8333 10.2833 17.1833 11.9333 15.1667 11.9333C13.15 11.9333 11.5 10.2833 11.5 8.26668C11.5 6.25002 13.15 4.60002 15.1667 4.60002ZM4.16667 26.6C4.53333 25.445 8.87833 23.52 13.26 23.0433L17 19.3767C16.285 19.3034 15.7533 19.2667 15.1667 19.2667C10.2717 19.2667 0.5 21.7233 0.5 26.6V30.2667H17L13.3333 26.6H4.16667ZM32.7667 16.5167L23.3617 25.995L19.5667 22.1817L17 24.7667L23.3617 31.1833L35.3333 19.1017L32.7667 16.5167Z" fill="#7739EC"/>
</svg>
