<svg width="153" height="36" viewBox="0 0 153 36" fill="none" xmlns="http://www.w3.org/2000/svg">
<path d="M57.32 23.76C57.32 26.12 55.72 27.44 53 27.44H47.36V19.92H52.88C55.6 19.92 57.32 21.36 57.32 23.76ZM56.64 12.12C56.64 14.4 55.12 15.6 52.48 15.6H47.36V8.6H52.48C55.12 8.6 56.64 9.88 56.64 12.12ZM63 24.44C63 21.16 60.76 18.24 57.6 17.68C60.32 16.8 62.36 14.68 62.36 11.28C62.36 7.12 59.12 4.08 53.28 4.08H41.76V32H53.8C59.6 32 63 28.88 63 24.44ZM82.2631 12.76C82.2631 15.28 80.8631 16.92 77.7431 16.92H73.0631V8.72H77.7431C80.8631 8.72 82.2631 10.28 82.2631 12.76ZM67.4631 4.08V32H73.0631V21.12H75.7031L81.8631 32H88.3431L81.6631 20.68C86.1431 19.48 88.0231 16.04 88.0231 12.64C88.0231 7.96 84.6631 4.08 77.9431 4.08H67.4631ZM93.0881 32H98.6881V4.08H93.0881V32ZM123.741 23.92C123.741 14.08 109.421 17.2 109.421 11.6C109.421 9.32 111.061 8.24 113.261 8.32C115.661 8.36 117.141 9.8 117.261 11.64H123.421C123.061 6.6 119.141 3.68 113.421 3.68C107.661 3.68 103.581 6.72 103.581 11.76C103.541 21.88 117.941 18.24 117.941 24.28C117.941 26.28 116.381 27.68 113.741 27.68C111.141 27.68 109.661 26.2 109.501 23.96H103.501C103.581 29.24 108.061 32.28 113.861 32.28C120.221 32.28 123.741 28.32 123.741 23.92ZM144.356 32H151.436L139.596 17.92L151.116 4.08H144.356L134.196 16.6V4.08H128.596V32H134.196V19.56L144.356 32Z" fill="white"/>
<path d="M0 33.3018C4.86673 26.2229 2.0278 20.3607 0 18.3145H8.40616C18.0511 24.2873 12.4249 30.7947 8.40616 33.3018H0Z" fill="white"/>
<path d="M0 16.9873C4.86673 9.90843 2.0278 4.04624 0 2H8.40616C18.0511 7.9728 12.4249 14.4802 8.40616 16.9873H0Z" fill="white"/>
<path d="M14.2686 33.3018C19.1353 26.2229 16.2964 20.3607 14.2686 18.3145H22.6747C32.3197 24.2873 26.6935 30.7947 22.6747 33.3018H14.2686Z" fill="white"/>
<path d="M14.2686 16.9873C19.1353 9.90843 16.2964 4.04624 14.2686 2H22.6747C32.3197 7.9728 26.6935 14.4802 22.6747 16.9873H14.2686Z" fill="white"/>
</svg>
